<svg viewBox="0 0 300 60" xmlns="http://www.w3.org/2000/svg" fill="currentColor">
  <style>
    .convo-gradient {
      fill: url(#convoGradient);
    }
    .span-ai-logo {
      fill: url(#spanAiLogoGradient);
    }
  </style>
  <defs>
    <linearGradient id="convoGradient" x1="0%" y1="0%" x2="100%" y2="0%">
      <stop offset="0%" style="stop-color:#000000" />
      <stop offset="100%" style="stop-color:#D4A373" />
    </linearGradient>
    <linearGradient id="spanAiLogoGradient" x1="0%" y1="0%" x2="100%" y2="0%">
      <stop offset="0%" style="stop-color:#29ABE2" />
      <stop offset="33%" style="stop-color:#ED1C24" />
      <stop offset="66%" style="stop-color:#F7941E" />
      <stop offset="100%" style="stop-color:#FCEE21" />
    </linearGradient>
  </defs>
  <g>
    <path class="convo-gradient" d="M22.13,45.57c-2.77-2.77-5.15-5.15-6.98-7.12a15.44,15.44,0,0,1-4.91-9.55,15.59,15.59,0,0,1,15.59-15.59h0a15.59,15.59,0,0,1,10.44,4.59l-7.43,7.43a8.48,8.48,0,0,0-5.72-2.37,8.53,8.53,0,0,0-8.53,8.53h0a8.53,8.53,0,0,0,5.88,8.29c2.34,1,4.58,3,6.26,4.62Zm-6.55-23.4a7.49,7.49,0,0,0,0,10.6,7.34,7.34,0,0,0,5.21,2.16,7.4,7.4,0,0,0,5.33-2.31l-10.54-10.45Z"/>
    <path d="M49.83,47.43a15.58,15.58,0,0,1-13.62-23.82l7.43-7.43a8.52,8.52,0,0,0,7.43,13.11,8.35,8.35,0,0,0,.12-1.58,8.53,8.53,0,0,0-8.53-8.53h0a8.53,8.53,0,0,0-5.88,8.29c-2.34,1-4.58,3-6.26,4.62l-.11.11,6.55,6.55a7.49,7.49,0,0,0,0-10.6,7.34,7.34,0,0,0-5.21-2.16,7.4,7.4,0,0,0-5.33,2.31l10.54,10.45A15.59,15.59,0,0,1,49.83,47.43Z"/>
    <path d="M77.53,47.43a15.58,15.58,0,0,1-13.62-23.82l7.43-7.43a8.52,8.52,0,0,0,7.43,13.11,8.35,8.35,0,0,0,.12-1.58,8.53,8.53,0,0,0-8.53-8.53h0a8.53,8.53,0,0,0-5.88,8.29c-2.34,1-4.58,3-6.26,4.62l-.11.11,6.55,6.55a7.49,7.49,0,0,0,0-10.6,7.34,7.34,0,0,0-5.21-2.16,7.4,7.4,0,0,0-5.33,2.31l10.54,10.45A15.59,15.59,0,0,1,77.53,47.43Z"/>
    <path d="M105.23,47.43a15.58,15.58,0,0,1-13.62-23.82l7.43-7.43a8.52,8.52,0,0,0,7.43,13.11,8.35,8.35,0,0,0,.12-1.58,8.53,8.53,0,0,0-8.53-8.53h0a8.53,8.53,0,0,0-5.88,8.29c-2.34,1-4.58,3-6.26,4.62l-.11.11,6.55,6.55a7.49,7.49,0,0,0,0-10.6,7.34,7.34,0,0,0-5.21-2.16,7.4,7.4,0,0,0-5.33,2.31l10.54,10.45A15.59,15.59,0,0,1,105.23,47.43Z"/>
    <path d="M132.93,47.43a15.58,15.58,0,0,1-13.62-23.82l7.43-7.43a8.52,8.52,0,0,0,7.43,13.11,8.35,8.35,0,0,0,.12-1.58,8.53,8.53,0,0,0-8.53-8.53h0a8.53,8.53,0,0,0-5.88,8.29c-2.34,1-4.58,3-6.26,4.62l-.11.11,6.55,6.55a7.49,7.49,0,0,0,0-10.6,7.34,7.34,0,0,0-5.21-2.16,7.4,7.4,0,0,0-5.33,2.31l10.54,10.45A15.59,15.59,0,0,1,132.93,47.43Z"/>
    <path d="M160.63,47.43a15.58,15.58,0,0,1-13.62-23.82l7.43-7.43a8.52,8.52,0,0,0,7.43,13.11,8.35,8.35,0,0,0,.12-1.58,8.53,8.53,0,0,0-8.53-8.53h0a8.53,8.53,0,0,0-5.88,8.29c-2.34,1-4.58,3-6.26,4.62l-.11.11,6.55,6.55a7.49,7.49,0,0,0,0-10.6,7.34,7.34,0,0,0-5.21-2.16,7.4,7.4,0,0,0-5.33,2.31l10.54,10.45A15.59,15.59,0,0,1,160.63,47.43Z"/>
  </g>
  <g transform="translate(170, 0)">
    <path class="span-ai-logo" d="M25.16,45.57c-2.77-2.77-5.15-5.15-6.98-7.12a15.44,15.44,0,0,1-4.91-9.55,15.59,15.59,0,0,1,15.59-15.59h0a15.59,15.59,0,0,1,10.44,4.59l-7.43,7.43a8.48,8.48,0,0,0-5.72-2.37,8.53,8.53,0,0,0-8.53,8.53h0a8.53,8.53,0,0,0,5.88,8.29c2.34,1,4.58,3,6.26,4.62Zm-6.55-23.4a7.49,7.49,0,0,0,0,10.6,7.34,7.34,0,0,0,5.21,2.16,7.4,7.4,0,0,0,5.33-2.31l-10.54-10.45Z"/>
    <path d="M52.86,47.43a15.58,15.58,0,0,1-13.62-23.82l7.43-7.43a8.52,8.52,0,0,0,7.43,13.11,8.35,8.35,0,0,0,.12-1.58,8.53,8.53,0,0,0-8.53-8.53h0a8.53,8.53,0,0,0-5.88,8.29c-2.34,1-4.58,3-6.26,4.62l-.11.11,6.55,6.55a7.49,7.49,0,0,0,0-10.6,7.34,7.34,0,0,0-5.21-2.16,7.4,7.4,0,0,0-5.33,2.31l10.54,10.45A15.59,15.59,0,0,1,52.86,47.43Z"/>
    <path d="M80.56,47.43a15.58,15.58,0,0,1-13.62-23.82l7.43-7.43a8.52,8.52,0,0,0,7.43,13.11,8.35,8.35,0,0,0,.12-1.58,8.53,8.53,0,0,0-8.53-8.53h0a8.53,8.53,0,0,0-5.88,8.29c-2.34,1-4.58,3-6.26,4.62l-.11.11,6.55,6.55a7.49,7.49,0,0,0,0-10.6,7.34,7.34,0,0,0-5.21-2.16,7.4,7.4,0,0,0-5.33,2.31l10.54,10.45A15.59,15.59,0,0,1,80.56,47.43Z"/>
  </g>
</svg>
